<svg id="enih7p1ix9b1" xmlns="http://www.w3.org/2000/svg" xmlns:xlink="http://www.w3.org/1999/xlink" viewBox="0 0 92.167000 79.833000" shape-rendering="geometricPrecision" text-rendering="geometricPrecision"><style><![CDATA[#enih7p1ix9b3_to {animation: enih7p1ix9b3_to__to 3000ms linear infinite alternate-reverse backwards}@keyframes enih7p1ix9b3_to__to { 0% {transform: translate(9.427000px,13.930000px)} 50% {transform: translate(9.723000px,11.719000px)} 100% {transform: translate(11.731000px,9.927000px)} }#enih7p1ix9b4_to {animation: enih7p1ix9b4_to__to 3000ms linear infinite alternate-reverse backwards}@keyframes enih7p1ix9b4_to__to { 0% {transform: translate(6.047190px,-0.195000px)} 50% {transform: translate(0.776010px,-0.195000px);animation-timing-function: cubic-bezier(0.250000,1,0.250000,1)} 100% {transform: translate(3.762070px,-0.195000px)} }#enih7p1ix9b5_ts {animation: enih7p1ix9b5_ts__ts 3000ms linear infinite alternate-reverse backwards}@keyframes enih7p1ix9b5_ts__ts { 0% {transform: translate(73.113010px,8.466067px) scale(1.260000,1.264841)} 50% {transform: translate(73.113010px,8.466067px) scale(1,1)} 100% {transform: translate(73.113010px,8.466067px) scale(1.580000,1.579728)} }#enih7p1ix9b6_tr {animation: enih7p1ix9b6_tr__tr 3000ms linear infinite alternate-reverse backwards}@keyframes enih7p1ix9b6_tr__tr { 0% {transform: translate(5.720000px,59.664000px) rotate(0deg)} 50% {transform: translate(5.720000px,59.664000px) rotate(52.165950deg)} 100% {transform: translate(5.720000px,59.664000px) rotate(178.626842deg)} }#enih7p1ix9b9_tr {animation: enih7p1ix9b9_tr__tr 3000ms linear infinite alternate-reverse backwards}@keyframes enih7p1ix9b9_tr__tr { 0% {transform: translate(83.669500px,33.335500px) rotate(0deg)} 50% {transform: translate(83.669500px,33.335500px) rotate(86.637272deg)} 100% {transform: translate(83.669500px,33.335500px) rotate(222.815933deg)} }]]></style><circle id="enih7p1ix9b2" r="36.750000" transform="matrix(1 0 0 1 44.47800000000000 40.54900000000000)" opacity="0.3" fill="rgb(110,197,164)" stroke="none" stroke-width="1"/><g id="enih7p1ix9b3_to" transform="translate(11.731000,9.927000)"><circle id="enih7p1ix9b3" r="4.003000" transform="translate(0,0)" fill="none" stroke="rgb(80,168,123)" stroke-width="2" stroke-miterlimit="10"/></g><g id="enih7p1ix9b4_to" transform="translate(3.762070,-0.195000)"><circle id="enih7p1ix9b4" r="2.949000" transform="translate(69.388000,74.545000)" fill="none" stroke="rgb(80,168,123)" stroke-width="2" stroke-miterlimit="10"/></g><g id="enih7p1ix9b5_ts" transform="translate(73.113010,8.466067) scale(1.580000,1.579728)"><circle id="enih7p1ix9b5" r="1.843000" transform="translate(-0,0)" opacity="0.5" fill="rgb(110,197,164)" stroke="none" stroke-width="1"/></g><g id="enih7p1ix9b6_tr" transform="translate(5.720000,59.664000) rotate(178.626842)"><g id="enih7p1ix9b6" transform="translate(-5.720000,-59.664000)"><line id="enih7p1ix9b7" x1="1" y1="59.664000" x2="9.848000" y2="59.664000" fill="none" stroke="rgb(80,168,123)" stroke-width="2" stroke-miterlimit="10"/><line id="enih7p1ix9b8" x1="5.424000" y1="55.240000" x2="5.424000" y2="64.088000" fill="none" stroke="rgb(80,168,123)" stroke-width="2" stroke-miterlimit="10"/></g></g><g id="enih7p1ix9b9_tr" transform="translate(83.669500,33.335500) rotate(222.815933)"><g id="enih7p1ix9b9" transform="translate(-87.649500,-33.089000)"><line id="enih7p1ix9b10" x1="85.208000" y1="35.167000" x2="90.091000" y2="30.519000" fill="none" stroke="rgb(80,168,123)" stroke-width="2" stroke-miterlimit="10"/><line id="enih7p1ix9b11" x1="85.325000" y1="30.401000" x2="89.973000" y2="35.284000" fill="none" stroke="rgb(80,168,123)" stroke-width="2" stroke-miterlimit="10"/></g></g><line id="enih7p1ix9b12" x1="97.433000" y1="45.267000" x2="97.433000" y2="45.267000" fill="none" stroke="rgb(31,33,38)" stroke-width="1" stroke-miterlimit="10"/><g id="enih7p1ix9b13"><circle id="enih7p1ix9b14" r="1.869000" transform="matrix(1 0 0 1 53.92900000000000 58.54700000000000)" fill="none" stroke="rgb(81,169,131)" stroke-width="1.200000" stroke-miterlimit="10"/><line id="enih7p1ix9b15" x1="53.929000" y1="56.678000" x2="53.929000" y2="48.191000" fill="none" stroke="rgb(81,169,131)" stroke-width="1.200000" stroke-miterlimit="10"/><line id="enih7p1ix9b16" x1="30.819000" y1="27.894000" x2="30.985000" y2="27.894000" fill="none" stroke="rgb(81,169,131)" stroke-width="2" stroke-miterlimit="10"/><g id="enih7p1ix9b17"><path id="enih7p1ix9b18" d="M29.656000,49.581000C30.715000,48.837000,32.022000,48.407000,33.395000,48.407000L38.606000,48.076000L44.346000,55.288000L50.400000,48.076000L55.561000,48.241000C59.200000,48.241000,62.178000,51.715000,62.178000,55.354000L62.178000,64.121000L50.383000,64.121000L26.778000,64.121000L26.778000,55.023000" fill="none" stroke="rgb(81,169,131)" stroke-width="1.200000" stroke-miterlimit="10"/><line id="enih7p1ix9b19" x1="44.345000" y1="55.288000" x2="44.345000" y2="64.121000" fill="none" stroke="rgb(81,169,131)" stroke-width="1.200000" stroke-miterlimit="10"/><path id="enih7p1ix9b20" d="M32.865000,32.113000C32.650000,31.187000,32.534000,30.227000,32.534000,29.251000C32.534000,22.469000,37.811000,16.977000,44.328000,16.977000C50.845000,16.977000,56.122000,22.469000,56.122000,29.251000C56.122000,30.210000,56.023000,31.137000,55.824000,32.014000" fill="none" stroke="rgb(81,169,131)" stroke-width="1.200000" stroke-miterlimit="10"/><path id="enih7p1ix9b21" d="M31.078000,25.959000C32.021000,22.187000,34.386000,18.978000,37.579000,17.026000" fill="none" stroke="rgb(81,169,131)" stroke-width="1.200000" stroke-miterlimit="10"/><path id="enih7p1ix9b22" d="M36.620000,28.440000C36.620000,28.440000,36.785000,32.245000,33.146000,32.906000C33.146000,32.906000,30.665000,33.452000,30.830000,35.834000C30.995000,38.216000,33.427000,38.530000,34.469000,38.200000C34.469000,38.200000,38.108000,46.190000,44.477000,46.024000L44.824000,46.024000C51.194000,46.190000,54.833000,38.200000,54.833000,38.200000C55.875000,38.531000,58.307000,38.200000,58.472000,35.834000C58.637000,33.468000,56.156000,32.906000,56.156000,32.906000C52.517000,32.244000,52.682000,28.440000,52.682000,28.440000C45.139000,30.375000,42.409000,24.850000,42.409000,24.850000C42.409000,24.850000,41.814000,30.310000,36.620000,28.440000Z" fill="none" stroke="rgb(81,169,131)" stroke-width="1.200000" stroke-miterlimit="10"/><path id="enih7p1ix9b23" d="M47.654000,40.020000C47.257000,41.393000,45.983000,42.386000,44.478000,42.386000C42.956000,42.386000,41.666000,41.360000,41.285000,39.954000" fill="none" stroke="rgb(81,169,131)" stroke-width="1.200000" stroke-miterlimit="10"/><path id="enih7p1ix9b24" d="M48.365000,45.644000C48.365000,45.644000,49.159000,47.778000,50.383000,48.076000" fill="none" stroke="rgb(81,169,131)" stroke-width="1.200000" stroke-miterlimit="10"/><path id="enih7p1ix9b25" d="M40.590000,45.644000C40.590000,45.644000,40.391000,47.414000,38.605000,48.076000" fill="none" stroke="rgb(81,169,131)" stroke-width="1.200000" stroke-miterlimit="10"/><line id="enih7p1ix9b26" x1="34.751000" y1="48.324000" x2="34.751000" y2="53.369000" fill="none" stroke="rgb(81,169,131)" stroke-width="1.200000" stroke-miterlimit="10"/><path id="enih7p1ix9b27" d="M33.378000,60.366000L31.327000,60.366000L31.327000,57.223000C31.327000,55.221000,32.965000,53.584000,34.966000,53.584000L34.966000,53.584000C36.968000,53.584000,38.605000,55.222000,38.605000,57.223000L38.605000,60.366000L36.339000,60.366000" fill="none" stroke="rgb(81,169,131)" stroke-width="1.200000" stroke-miterlimit="10"/><line id="enih7p1ix9b28" x1="40.590000" y1="32.113000" x2="40.590000" y2="34.065000" fill="none" stroke="rgb(81,169,131)" stroke-width="1.200000" stroke-miterlimit="10"/><line id="enih7p1ix9b29" x1="48.365000" y1="32.113000" x2="48.365000" y2="34.065000" fill="none" stroke="rgb(81,169,131)" stroke-width="1.200000" stroke-miterlimit="10"/></g></g></svg>