<?xml version="1.0" encoding="utf-8"?>
<!-- Generator: Adobe Illustrator 17.0.0, SVG Export Plug-In . SVG Version: 6.00 Build 0)  -->
<!DOCTYPE svg PUBLIC "-//W3C//DTD SVG 1.1//EN" "http://www.w3.org/Graphics/SVG/1.1/DTD/svg11.dtd">
<svg version="1.1" id="Layer_1" xmlns="http://www.w3.org/2000/svg" xmlns:xlink="http://www.w3.org/1999/xlink" x="0px" y="0px"
	 width="92.167px" height="79.833px" viewBox="0 0 92.167 79.833" enable-background="new 0 0 92.167 79.833" xml:space="preserve">
<circle opacity="0.3" fill="#6EC5A4" enable-background="new    " cx="45.252" cy="40.92" r="36.75"/>
<circle fill="none" stroke="#50A87B" stroke-width="2" stroke-miterlimit="10" cx="9.723" cy="11.719" r="4.003"/>
<circle fill="none" stroke="#50A87B" stroke-width="2" stroke-miterlimit="10" cx="69.388" cy="74.545" r="2.949"/>
<circle opacity="0.5" fill="#6EC5A4" enable-background="new    " cx="70.651" cy="9.927" r="1.843"/>
<g>
	<line fill="none" stroke="#50A87B" stroke-width="2" stroke-miterlimit="10" x1="1" y1="59.664" x2="9.848" y2="59.664"/>
	<line fill="none" stroke="#50A87B" stroke-width="2" stroke-miterlimit="10" x1="5.424" y1="55.24" x2="5.424" y2="64.088"/>
</g>
<g>
	<line fill="none" stroke="#50A87B" stroke-width="2" stroke-miterlimit="10" x1="85.208" y1="35.167" x2="90.091" y2="30.519"/>
	<line fill="none" stroke="#50A87B" stroke-width="2" stroke-miterlimit="10" x1="85.325" y1="30.401" x2="89.973" y2="35.284"/>
</g>
<line fill="none" stroke="#1F2126" stroke-miterlimit="10" x1="97.433" y1="45.267" x2="97.433" y2="45.267"/>
<g>
	<path fill="none" stroke="#51A983" stroke-width="0.8244" stroke-miterlimit="10" d="M45.962,47.48h6.731
		c1.643,0,2.98-1.366,2.98-3.038v-0.218c0-1.672-1.337-3.038-2.98-3.038h-0.901c0,0,0.029-3.024,0.044-6.367
		c0.015-3.547,0.029-7.457,0.015-8.548c-0.044-2.122-1.454-4.347-4.07-5.19c-2.035-0.654-3.096,0.189-3.474,0.596
		c-0.058,0.073-0.189,0.044-0.218-0.044c-0.174-0.523-0.64-0.756-0.872-0.843c-0.087-0.029-0.174-0.044-0.262-0.044h-5.539
		c-4.608,0.48-5.001,6.164-5.001,6.164v4.681v9.594h-0.989c-1.643,0-2.98,1.366-2.98,3.038v0.218c0,1.672,1.337,3.038,2.98,3.038
		h6.978"/>
	<path fill="none" stroke="#51A983" stroke-width="0.8244" stroke-miterlimit="10" d="M32.413,31.388h6.643
		c0,0,3.78,0.116,4.914-3.751c0,0-0.204,6.832,7.879,6.905"/>
	<path fill="none" stroke="#51A983" stroke-width="0.8244" stroke-miterlimit="10" d="M49.64,34.368v3.707
		c0,3.998-3.271,7.269-7.268,7.269h-0.698c-3.998,0-7.269-3.271-7.269-7.269v-6.542"/>
	<path fill="none" stroke="#51A983" stroke-width="0.8244" stroke-miterlimit="10" d="M45.962,44.369v3.794
		c0,2.079-1.701,3.78-3.78,3.78l0,0c-2.079,0-3.78-1.701-3.78-3.78v-3.532"/>
	<path fill="none" stroke="#51A983" stroke-width="0.8244" stroke-miterlimit="10" d="M54.887,48.89
		c-0.8-0.858-1.933-1.41-3.184-1.41"/>
	<polyline fill="none" stroke="#51A983" stroke-width="0.8244" stroke-miterlimit="10" points="28.445,56.101 28.445,62.89 
		56.065,62.89 56.065,59.546 	"/>
	<path fill="none" stroke="#51A983" stroke-width="0.8244" stroke-miterlimit="10" d="M32.806,47.48
		c-2.399,0-4.361,1.992-4.361,4.434"/>
	<path fill="none" stroke="#51A983" stroke-width="0.8244" stroke-miterlimit="10" d="M58.725,28.626h4.114
		c0.8,0,1.454-0.654,1.454-1.454v-4.55c0-0.8-0.654-1.454-1.454-1.454h-7.85c-0.8,0-1.454,0.654-1.454,1.454v4.55
		c0,0.8,0.654,1.454,1.454,1.454h1.119l0.538,2.224L58.725,28.626z"/>
	
		<line fill="none" stroke="#51A983" stroke-width="0.8244" stroke-miterlimit="10" x1="56.065" y1="25.195" x2="56.065" y2="25.195"/>
	
		<line fill="none" stroke="#51A983" stroke-width="0.8244" stroke-miterlimit="10" x1="59.001" y1="25.195" x2="59.001" y2="25.195"/>
	<circle fill="none" stroke="#51A983" stroke-width="0.8244" stroke-miterlimit="10" cx="56.065" cy="54.066" r="5.19"/>
	<polygon fill="none" stroke="#51A983" stroke-width="0.8244" stroke-miterlimit="10" points="53.594,53.077 52.649,54.429 
		55.411,56.711 59.307,52.466 58.027,51.304 55.265,54.356 	"/>
	
		<line fill="none" stroke="#51A983" stroke-width="0.8244" stroke-miterlimit="10" x1="38.403" y1="34.978" x2="38.403" y2="36.679"/>
	
		<line fill="none" stroke="#51A983" stroke-width="0.8244" stroke-miterlimit="10" x1="45.555" y1="34.978" x2="45.555" y2="36.679"/>
	
		<line fill="none" stroke="#51A983" stroke-width="0.8244" stroke-miterlimit="10" x1="30.625" y1="51.958" x2="30.625" y2="56.711"/>
	
		<line fill="none" stroke="#51A983" stroke-width="0.8244" stroke-miterlimit="10" x1="42.182" y1="53.513" x2="42.182" y2="53.484"/>
	
		<line fill="none" stroke="#51A983" stroke-width="0.8244" stroke-miterlimit="10" x1="42.182" y1="56.566" x2="42.182" y2="56.537"/>
</g>
</svg>
