<svg id="eokmkn61531b1" xmlns="http://www.w3.org/2000/svg" xmlns:xlink="http://www.w3.org/1999/xlink" viewBox="0 0 92.167000 79.833000" shape-rendering="geometricPrecision" text-rendering="geometricPrecision"><style><![CDATA[#eokmkn61531b3_to {animation: eokmkn61531b3_to__to 5000ms linear infinite normal backwards}@keyframes eokmkn61531b3_to__to { 0% {transform: translate(0px,-3px)} 30% {transform: translate(0px,0px)} 60% {transform: translate(0px,2px)} 100% {transform: translate(0px,2px)} }#eokmkn61531b4_to {animation: eokmkn61531b4_to__to 5000ms linear infinite normal backwards}@keyframes eokmkn61531b4_to__to { 0% {transform: translate(10px,0px)} 30% {transform: translate(0px,0px);animation-timing-function: cubic-bezier(0.250000,1,0.250000,1)} 60% {transform: translate(3px,1px)} 100% {transform: translate(3px,1px)} }#eokmkn61531b5_ts {animation: eokmkn61531b5_ts__ts 5000ms linear infinite normal backwards}@keyframes eokmkn61531b5_ts__ts { 0% {transform: translate(70.651000px,9.927000px) scale(1.641167,1.641167)} 50% {transform: translate(70.651000px,9.927000px) scale(1,1);animation-timing-function: cubic-bezier(0.250000,1,0.250000,1)} 100% {transform: translate(70.651000px,9.927000px) scale(1.817927,1.817927)} }#eokmkn61531b6_tr {animation: eokmkn61531b6_tr__tr 5000ms linear infinite normal backwards}@keyframes eokmkn61531b6_tr__tr { 0% {transform: translate(5.720000px,59.664000px) rotate(0deg)} 50% {transform: translate(5.720000px,59.664000px) rotate(126.112006deg)} 100% {transform: translate(5.720000px,59.664000px) rotate(269.639516deg)} }#eokmkn61531b9_tr {animation: eokmkn61531b9_tr__tr 5000ms linear infinite normal backwards}@keyframes eokmkn61531b9_tr__tr { 0% {transform: translate(87.649000px,32.843000px) rotate(0deg)} 50% {transform: translate(87.649000px,32.843000px) rotate(77.469304deg)} 100% {transform: translate(87.649000px,32.843000px) rotate(180.427128deg)} }#eokmkn61531b15_to {animation: eokmkn61531b15_to__to 5000ms linear infinite normal backwards}@keyframes eokmkn61531b15_to__to { 0% {transform: translate(0px,0px)} 2% {transform: translate(2px,0px)} 4% {transform: translate(0px,0px)} 10% {transform: translate(90px,0px)} 16% {transform: translate(0px,0px)} 18% {transform: translate(1px,0px)} 20% {transform: translate(0px,0px)} 100% {transform: translate(0px,0px)} }]]></style><circle id="eokmkn61531b2" r="36.750000" transform="matrix(1 0 0 1 44.68800000000000 41.01500000000000)" opacity="0.3" fill="rgb(110,197,164)" stroke="none" stroke-width="1"/><g id="eokmkn61531b3_to" transform="translate(0,-3)"><circle id="eokmkn61531b3" r="4.003000" transform="translate(9.723000,11.719000)" fill="none" stroke="rgb(80,168,123)" stroke-width="2" stroke-miterlimit="10"/></g><g id="eokmkn61531b4_to" transform="translate(10,0)"><circle id="eokmkn61531b4" r="2.949000" transform="translate(69.388000,74.545000)" fill="none" stroke="rgb(80,168,123)" stroke-width="2" stroke-miterlimit="10"/></g><g id="eokmkn61531b5_ts" transform="translate(70.651000,9.927000) scale(1.641167,1.641167)"><circle id="eokmkn61531b5" r="1.843000" transform="translate(-0,0)" opacity="0.5" fill="rgb(110,197,164)" stroke="none" stroke-width="1"/></g><g id="eokmkn61531b6_tr" transform="translate(5.720000,59.664000) rotate(0)"><g id="eokmkn61531b6" transform="translate(-5.720000,-59.664000)"><line id="eokmkn61531b7" x1="1" y1="59.664000" x2="9.848000" y2="59.664000" fill="none" stroke="rgb(80,168,123)" stroke-width="2" stroke-miterlimit="10"/><line id="eokmkn61531b8" x1="5.424000" y1="55.240000" x2="5.424000" y2="64.088000" fill="none" stroke="rgb(80,168,123)" stroke-width="2" stroke-miterlimit="10"/></g></g><g id="eokmkn61531b9_tr" transform="translate(87.649000,32.843000) rotate(0)"><g id="eokmkn61531b9" transform="translate(-87.649000,-32.843000)"><line id="eokmkn61531b10" x1="85.208000" y1="35.167000" x2="90.091000" y2="30.519000" fill="none" stroke="rgb(80,168,123)" stroke-width="2" stroke-miterlimit="10"/><line id="eokmkn61531b11" x1="85.325000" y1="30.401000" x2="89.973000" y2="35.284000" fill="none" stroke="rgb(80,168,123)" stroke-width="2" stroke-miterlimit="10"/></g></g><line id="eokmkn61531b12" x1="97.433000" y1="45.267000" x2="97.433000" y2="45.267000" fill="none" stroke="rgb(31,33,38)" stroke-width="1" stroke-miterlimit="10"/><g id="eokmkn61531b13"><g id="eokmkn61531b14"/></g><g id="eokmkn61531b15_to" transform="translate(0,0)"><g id="eokmkn61531b15" transform="translate(0,0)"><path id="eokmkn61531b16" d="M32.409000,60.719000L38.169000,60.747000C38.169000,60.747000,39.039000,58.026000,40.144000,57.667000C41.249000,57.294000,46.456000,58.454000,47.838000,58.592000C48.529000,58.772000,55.062000,56.423000,56.775000,55.374000C57.051000,55.333000,59.952000,52.750000,61.513000,49.946000C61.748000,49.711000,60.960000,48.054000,58.571000,48.979000C58.115000,49.076000,51.761000,52.805000,51.761000,52.805000C51.761000,52.805000,48.860000,53.219000,46.208000,52.846000C45.766000,52.666000,43.887000,50.733000,43.887000,50.733000C43.887000,50.733000,50.655000,51.838000,51.249000,49.766000C51.843000,47.694000,49.550000,47.045000,47.754000,46.962000C45.958000,46.879000,38.679000,46.271000,37.298000,46.451000C35.917000,46.631000,33.707000,47.970000,32.284000,51.327000C31.773000,52.473000,27.822000,60.720000,27.822000,60.720000L29.991000,60.734000" fill="none" stroke="rgb(81,169,131)" stroke-width="1.036200" stroke-miterlimit="10"/><line id="eokmkn61531b17" x1="30.947000" y1="58.737000" x2="34.101000" y2="51.933000" fill="none" stroke="rgb(81,169,131)" stroke-width="1.036200" stroke-miterlimit="10"/><path id="eokmkn61531b18" d="M52.368000,31.643000L43.707000,31.643000C42.878000,31.643000,42.215000,30.966000,42.215000,30.151000L42.215000,30.151000C42.215000,29.322000,42.892000,28.659000,43.707000,28.659000L52.368000,28.659000C53.197000,28.659000,53.860000,29.336000,53.860000,30.151000L53.860000,30.151000C53.874000,30.980000,53.197000,31.643000,52.368000,31.643000Z" fill="none" stroke="rgb(81,169,131)" stroke-width="1.036200" stroke-miterlimit="10"/><path id="eokmkn61531b19" d="M45.018000,28.058000C45.018000,28.058000,39.065000,36.377000,37.812000,44.851000" fill="none" stroke="rgb(81,169,131)" stroke-width="1.036200" stroke-miterlimit="10"/><path id="eokmkn61531b20" d="M55.946000,37.072000C57.604000,40.567000,59.247000,45.111000,58.888000,48.840000" fill="none" stroke="rgb(81,169,131)" stroke-width="1.036200" stroke-miterlimit="10"/><path id="eokmkn61531b21" d="M52.907000,31.547000C52.907000,31.547000,53.763000,32.859000,54.841000,34.876000" fill="none" stroke="rgb(81,169,131)" stroke-width="1.036200" stroke-miterlimit="10"/><path id="eokmkn61531b22" d="M43.349000,28.701000C43.349000,28.701000,40.559000,26.173000,41.857000,24.695000C43.155000,23.217000,44.302000,25.620000,45.352000,25.427000C46.416000,25.247000,46.733000,21.283000,48.847000,21.283000C50.961000,21.283000,49.814000,25.054000,50.601000,25.330000C51.388000,25.606000,52.576000,23.672000,53.640000,24.322000C54.704000,24.971000,54.096000,27.002000,52.742000,28.701000" fill="none" stroke="rgb(81,169,131)" stroke-width="1.036200" stroke-miterlimit="10"/><path id="eokmkn61531b23" d="M41.401000,46.188000C41.139000,45.442000,41,44.641000,41,43.798000C41,39.903000,44.094000,36.753000,47.920000,36.753000C51.746000,36.753000,54.840000,39.902000,54.840000,43.798000C54.840000,46.395000,53.459000,48.674000,51.387000,49.889000" fill="none" stroke="rgb(81,169,131)" stroke-width="1.036200" stroke-miterlimit="10"/><path id="eokmkn61531b24" d="M39.661000,41.395000C40.435000,38.757000,42.382000,36.657000,44.896000,35.690000" fill="none" stroke="rgb(81,169,131)" stroke-width="1.036200" stroke-miterlimit="10"/><line id="eokmkn61531b25" x1="47.921000" y1="38.605000" x2="47.921000" y2="46.948000" fill="none" stroke="rgb(81,169,131)" stroke-width="1.036200" stroke-miterlimit="10"/><path id="eokmkn61531b26" d="M49.799000,47.321000C50.711000,43.288000,47.147000,44.489000,46.194000,42.970000C45.241000,41.451000,46.263000,39.655000,47.907000,39.655000C47.907000,39.655000,50.310000,39.517000,50.172000,42.100000" fill="none" stroke="rgb(81,169,131)" stroke-width="1.036200" stroke-miterlimit="10"/><line id="eokmkn61531b27" x1="45.849000" y1="45.650000" x2="45.849000" y2="46.810000" fill="none" stroke="rgb(81,169,131)" stroke-width="1.036200" stroke-miterlimit="10"/><line id="eokmkn61531b28" x1="46.318000" y1="35.262000" x2="46.457000" y2="35.262000" fill="none" stroke="rgb(81,169,131)" stroke-width="1.036200" stroke-miterlimit="10"/></g></g></svg>